<?xml version="1.0" standalone="no"?>
<!DOCTYPE svg PUBLIC "-//W3C//DTD SVG 20010904//EN"
 "http://www.w3.org/TR/2001/REC-SVG-20010904/DTD/svg10.dtd">
<svg version="1.0" xmlns="http://www.w3.org/2000/svg"
 width="512.000000pt" height="512.000000pt" viewBox="0 0 512.000000 512.000000"
 preserveAspectRatio="xMidYMid meet">
<metadata>
Created by potrace 1.14, written by Peter Selinger 2001-2017
</metadata>
<g transform="translate(0.000000,512.000000) scale(0.100000,-0.100000)"
fill="#000000" stroke="none">
<path d="M135 5103 c-52 -21 -108 -80 -123 -130 -17 -55 -17 -4758 -1 -4818 6
-22 26 -58 44 -81 66 -81 -159 -74 2514 -74 2326 0 2377 1 2419 20 60 27 98
67 116 123 14 43 16 283 16 2422 0 2197 -1 2378 -17 2417 -17 44 -50 83 -99
115 -27 17 -115 18 -2429 20 -2186 2 -2404 1 -2440 -14z m2757 -1089 c52 -36
88 -98 92 -155 1 -23 -3 -74 -10 -113 -6 -39 -15 -87 -18 -106 -3 -19 -21
-132 -41 -250 -20 -118 -38 -228 -41 -245 -2 -16 -6 -41 -9 -55 -3 -14 -7 -41
-10 -60 -3 -19 -8 -46 -10 -60 -5 -29 -54 -323 -60 -360 -10 -61 -76 -457 -80
-480 -2 -14 -22 -131 -44 -260 -22 -129 -42 -253 -45 -274 -4 -21 -8 -48 -11
-60 -2 -12 -7 -39 -10 -61 -15 -107 -48 -272 -60 -295 -50 -96 -180 -138 -280
-90 -97 47 -136 140 -112 270 4 19 9 49 11 65 6 36 75 447 82 490 3 17 57 341
120 720 63 380 117 701 119 715 2 14 25 146 50 294 38 229 49 275 72 311 44
70 97 95 190 92 51 -2 71 -9 105 -33z m-1100 -407 c73 -31 131 -120 127 -194
-5 -89 -15 -102 -398 -485 l-366 -368 371 -372 c337 -339 372 -377 384 -420
48 -179 -131 -330 -297 -251 -50 23 -932 909 -954 958 -26 57 -20 143 13 193
28 41 877 894 917 921 61 40 135 46 203 18z m1715 -4 c39 -18 928 -904 950
-947 22 -42 23 -151 1 -192 -24 -44 -912 -929 -951 -947 -134 -63 -285 20
-303 167 -13 101 -16 97 389 504 l372 372 -367 368 c-209 209 -372 380 -378
397 -22 57 -23 121 -2 168 51 115 176 163 289 110z"/>
</g>
</svg>
