<?xml version="1.0" standalone="no"?>
<!DOCTYPE svg PUBLIC "-//W3C//DTD SVG 20010904//EN"
 "http://www.w3.org/TR/2001/REC-SVG-20010904/DTD/svg10.dtd">
<svg version="1.0" xmlns="http://www.w3.org/2000/svg"
 width="1000.000000pt" height="1000.000000pt" viewBox="0 0 1000.000000 1000.000000"
 preserveAspectRatio="xMidYMid meet">

<g transform="translate(0.000000,1000.000000) scale(0.100000,-0.100000)"
fill="#000000" stroke="none">
<path d="M4630 9989 c-1539 -115 -2937 -933 -3797 -2224 -545 -817 -833 -1773
-833 -2765 0 -1338 521 -2593 1470 -3540 862 -861 1975 -1365 3205 -1451 208
-14 641 -6 845 16 1153 124 2200 625 3015 1440 945 944 1465 2200 1465 3535 0
1335 -521 2591 -1465 3535 -859 859 -1970 1366 -3190 1455 -163 12 -549 11
-715 -1z m2702 -2450 c40 -104 80 -249 100 -369 19 -114 16 -423 -5 -550 -23
-133 -24 -235 -3 -298 9 -27 54 -123 100 -213 166 -327 253 -682 263 -1064 7
-289 -28 -507 -122 -760 -91 -244 -215 -435 -410 -631 -231 -232 -431 -352
-730 -439 -255 -74 -569 -103 -727 -69 -23 5 -27 3 -23 -14 2 -11 19 -41 39
-66 137 -179 225 -428 261 -731 18 -154 20 -529 4 -780 -13 -203 -15 -601 -5
-703 l8 -72 -1238 0 -1239 0 55 24 c30 13 80 31 110 40 31 8 77 29 103 46 l48
30 -7 153 c-3 83 -12 271 -18 417 l-11 264 -75 13 c-41 7 -219 17 -395 22
-328 10 -355 13 -479 60 -194 72 -344 193 -449 363 -26 40 -76 143 -112 228
-123 288 -189 403 -299 519 -93 98 -181 149 -300 176 l-29 6 29 31 c107 114
338 88 524 -58 90 -71 161 -140 325 -319 236 -257 357 -359 516 -434 113 -54
185 -71 299 -72 110 0 188 18 271 62 122 65 187 161 258 383 52 161 84 229
134 283 45 49 51 44 -88 63 -113 16 -372 67 -488 96 -388 97 -714 275 -895
487 -154 179 -261 391 -343 680 -104 370 -142 679 -119 972 34 446 175 791
421 1035 l67 66 -24 104 c-14 58 -40 191 -60 295 -34 186 -35 193 -24 309 13
148 32 240 77 379 45 141 43 140 208 99 345 -87 739 -279 1013 -494 l64 -50
106 40 c196 73 396 122 638 159 184 27 629 25 819 -5 182 -28 387 -79 553
-137 l133 -46 93 88 c210 199 482 352 761 428 97 27 241 55 265 52 9 -1 30
-41 52 -98z"/>
<path d="M235 2360 c-4 -6 -16 -8 -26 -5 -35 11 -69 -42 -39 -60 20 -12 93
-15 107 -4 18 15 16 44 -3 63 -18 19 -30 20 -39 6z m-27 -37 c-4 -22 -22 -20
-26 1 -2 10 3 16 13 16 10 0 15 -7 13 -17z m60 0 c-2 -10 -10 -18 -18 -18 -8
0 -16 8 -18 18 -2 12 3 17 18 17 15 0 20 -5 18 -17z"/>
<path d="M160 2226 c0 -24 5 -36 14 -36 8 0 20 -2 28 -5 8 -3 18 6 25 26 14
37 38 34 38 -4 -1 -15 3 -27 7 -27 16 0 21 31 9 56 -15 33 -51 29 -69 -9 -14
-29 -32 -28 -32 3 0 10 -4 22 -10 25 -6 4 -10 -8 -10 -29z"/>
<path d="M235 2150 c-4 -6 -16 -8 -26 -5 -35 11 -60 -22 -40 -53 10 -17 91
-25 108 -11 18 15 16 44 -3 63 -18 19 -30 20 -39 6z m-27 -37 c-4 -22 -22 -20
-26 1 -2 10 3 16 13 16 10 0 15 -7 13 -17z m60 0 c-2 -10 -10 -18 -18 -18 -8
0 -16 8 -18 18 -2 12 3 17 18 17 15 0 20 -5 18 -17z"/>
<path d="M240 2041 c0 -5 -16 -8 -37 -7 -49 1 -52 -17 -6 -48 47 -33 63 -33
63 -1 0 16 6 25 15 25 8 0 15 7 15 15 0 9 -6 12 -15 9 -8 -4 -15 -1 -15 5 0 6
-4 11 -10 11 -5 0 -10 -4 -10 -9z m-3 -36 c9 -25 -2 -27 -28 -6 l-24 20 23 1
c12 0 25 -7 29 -15z"/>
<path d="M235 1930 c-4 -6 -16 -8 -26 -5 -35 11 -60 -22 -40 -53 10 -17 91
-25 108 -11 18 15 16 44 -3 63 -18 19 -30 20 -39 6z m-27 -37 c-4 -22 -22 -20
-26 1 -2 10 3 16 13 16 10 0 15 -7 13 -17z m60 0 c-2 -10 -10 -18 -18 -18 -8
0 -16 8 -18 18 -2 12 3 17 18 17 15 0 20 -5 18 -17z"/>
<path d="M160 1812 c0 -5 7 -17 15 -28 13 -17 14 -17 15 -1 0 14 9 17 50 17
28 0 50 5 50 10 0 6 -28 10 -65 10 -36 0 -65 -4 -65 -8z"/>
<path d="M188 1753 c-19 -5 -34 -45 -23 -62 11 -18 22 -12 21 12 -1 32 34 34
64 2 32 -34 40 -32 40 15 0 22 -4 40 -10 40 -5 0 -10 -12 -10 -27 -1 -24 -2
-26 -13 -12 -17 22 -49 36 -69 32z"/>
<path d="M160 1626 c0 -24 5 -36 14 -36 8 0 20 -2 28 -5 8 -3 18 6 25 26 14
37 38 34 38 -4 -1 -15 3 -27 7 -27 16 0 21 31 9 56 -15 33 -51 29 -69 -9 -14
-29 -32 -28 -32 3 0 10 -4 22 -10 25 -6 4 -10 -8 -10 -29z"/>
<path d="M240 1552 c0 -6 -16 -9 -40 -7 -52 6 -53 -15 -3 -50 47 -32 63 -32
63 0 0 16 6 25 15 25 8 0 15 7 15 15 0 8 -4 15 -9 15 -5 0 -16 3 -25 6 -9 3
-16 1 -16 -4z m0 -45 c0 -14 -4 -16 -19 -7 -32 16 -35 30 -7 28 18 -2 26 -8
26 -21z"/>
<path d="M190 1449 c0 -5 -4 -7 -10 -4 -5 3 -10 2 -10 -4 0 -5 6 -12 13 -15 9
-5 9 -7 0 -12 -10 -4 -9 -9 2 -20 8 -9 20 -12 26 -8 6 3 14 1 18 -5 5 -8 15
-9 31 -3 19 7 21 10 7 15 -23 9 -22 28 1 20 12 -4 11 0 -7 17 -18 18 -25 20
-32 9 -6 -11 -9 -10 -15 4 -7 19 -24 23 -24 6z m45 -39 c-3 -5 -10 -10 -16
-10 -5 0 -9 5 -9 10 0 6 7 10 16 10 8 0 12 -4 9 -10z"/>
<path d="M140 1280 c0 -6 38 -10 95 -10 57 0 95 4 95 10 0 6 -38 10 -95 10
-57 0 -95 -4 -95 -10z"/>
<path d="M261 1189 c-22 -18 -25 -19 -42 -3 -11 10 -22 14 -27 10 -4 -4 4 -16
17 -27 l23 -19 -46 0 c-34 0 -46 -4 -46 -15 0 -12 15 -15 75 -15 60 0 75 3 75
15 0 9 -9 15 -22 15 l-23 0 24 19 c13 10 22 23 20 29 -2 6 -14 3 -28 -9z"/>
<path d="M190 1081 c0 -27 27 -51 55 -51 24 0 45 25 45 54 0 25 -18 19 -22 -6
-2 -17 -10 -23 -28 -23 -18 0 -26 6 -28 23 -4 27 -22 30 -22 3z"/>
<path d="M206 994 c-19 -18 -20 -28 -6 -55 21 -39 90 -16 90 30 0 16 -30 41
-50 41 -10 0 -26 -7 -34 -16z m59 -29 c0 -22 -31 -33 -47 -17 -17 17 -1 44 24
40 15 -2 23 -10 23 -23z"/>
<path d="M190 900 c0 -5 -7 -10 -15 -10 -8 0 -15 -4 -15 -10 0 -5 6 -10 14
-10 8 0 17 -6 20 -12 5 -10 7 -10 12 0 3 6 21 12 40 12 34 0 56 22 39 38 -4 4
-10 1 -12 -5 -5 -15 -63 -18 -63 -3 0 6 -4 10 -10 10 -5 0 -10 -4 -10 -10z"/>
<path d="M212 810 c-19 -34 -35 -34 -40 -2 -5 30 -22 28 -22 -2 0 -50 54 -61
77 -16 17 34 38 32 38 -3 -1 -32 18 -31 23 2 8 53 -49 69 -76 21z"/>
<path d="M200 675 c-22 -26 3 -65 40 -65 35 0 58 36 45 67 -7 16 -9 15 -13 -7
-6 -40 -22 -48 -22 -12 0 25 -4 32 -19 32 -10 0 -24 -7 -31 -15z m30 -26 c0
-11 -4 -17 -10 -14 -5 3 -10 13 -10 21 0 8 5 14 10 14 6 0 10 -9 10 -21z"/>
<path d="M197 561 c-8 -22 -18 -31 -34 -31 -14 0 -23 -6 -23 -15 0 -23 138
-22 147 2 10 26 -19 68 -50 71 -24 3 -30 -2 -40 -27z m57 3 c28 -11 18 -34
-14 -34 -18 0 -30 5 -30 13 0 25 15 32 44 21z"/>
<path d="M206 464 c-19 -18 -20 -28 -6 -55 21 -39 90 -16 90 30 0 16 -30 41
-50 41 -10 0 -26 -7 -34 -16z m59 -29 c0 -22 -31 -33 -47 -17 -17 17 -1 44 24
40 15 -2 23 -10 23 -23z"/>
<path d="M140 350 c0 -5 11 -10 25 -10 15 0 25 -6 25 -14 0 -45 73 -62 92 -22
20 45 6 56 -72 56 -40 0 -70 -4 -70 -10z m128 -27 c-2 -12 -12 -18 -28 -18
-16 0 -26 6 -28 18 -3 13 3 17 28 17 25 0 31 -4 28 -17z"/>
<path d="M220 246 c-36 -13 -66 -29 -68 -37 -1 -9 20 -21 68 -35 38 -12 70
-17 70 -12 0 6 -9 12 -20 15 -14 4 -20 14 -20 34 0 22 5 29 20 29 11 0 20 7
20 15 0 8 -1 15 -2 14 -2 0 -32 -11 -68 -23z m8 -51 c-7 -7 -48 7 -48 15 0 15
45 16 48 2 2 -8 2 -15 0 -17z"/>
</g>
</svg>
