<svg xmlns="http://www.w3.org/2000/svg" version="1.0" preserveAspectRatio="xMidYMid meet" viewBox="0 1.38 511.9 377.64">

<g transform="translate(0.000000,379.000000) scale(0.100000,-0.100000)" fill="#000000" stroke="none">
<path d="M655 3770 c-242 -36 -453 -185 -564 -400 -33 -64 -76 -180 -68 -185 156 -101 2526 -1539 2537 -1539 11 0 2381 1438 2537 1539 8 5 -35 121 -68 185 -95 184 -258 317 -469 382 l-75 23 -1890 1 c-1039 1 -1913 -2 -1940 -6z"/>
<path d="M0 1700 c0 -881 2 -1021 16 -1088 32 -155 92 -268 204 -383 122 -124 269 -197 441 -218 116 -15 3682 -15 3798 0 270 33 505 214 606 466 56 139 56 131 53 1226 l-3 1007 -1200 -731 c-660 -403 -1220 -741 -1243 -751 -59 -27 -165 -27 -224 0 -23 10 -576 344 -1227 741 -650 397 -1192 726 -1202 732 -19 9 -19 -12 -19 -1001z"/>
</g>
</svg>